<?xml version="1.0" encoding="utf-8"?>
<!-- Generator: Adobe Illustrator 22.0.1, SVG Export Plug-In . SVG Version: 6.00 Build 0)  -->
<svg version="1.1" id="Layer_1" xmlns="http://www.w3.org/2000/svg" xmlns:xlink="http://www.w3.org/1999/xlink" x="0px" y="0px"
	 viewBox="0 0 47.5 47.5" style="enable-background:new 0 0 47.5 47.5;" xml:space="preserve">
<style type="text/css">
	.Graphic_x0020_Style_x0020_4{opacity:0.8;fill:#A7A9AC;}
	.Graphic_x0020_Style_x0020_3{fill:none;}
	.Graphic_x0020_Style{fill:#808285;}
	.st0{display:none;fill:#FFFFFF;}
	.st1{opacity:0;fill:#FFFFFF;}
	.st2{opacity:4.761905e-02;fill:#F9F9F9;}
	.st3{opacity:9.523810e-02;fill:#F3F3F3;}
	.st4{opacity:0.1429;fill:#EDEDEE;}
	.st5{opacity:0.1905;fill:#E7E7E8;}
	.st6{opacity:0.2381;fill:#E1E1E2;}
	.st7{opacity:0.2857;fill:#DBDBDC;}
	.st8{opacity:0.3333;fill:#D5D5D6;}
	.st9{opacity:0.381;fill:#CFCFD1;}
	.st10{opacity:0.4286;fill:#C9C9CB;}
	.st11{opacity:0.4762;fill:#C3C3C5;}
	.st12{opacity:0.5238;fill:#BCBEBF;}
	.st13{opacity:0.5714;fill:#B6B8B9;}
	.st14{opacity:0.619;fill:#B0B2B3;}
	.st15{opacity:0.6667;fill:#AAACAE;}
	.st16{opacity:0.7143;fill:#A4A6A8;}
	.st17{opacity:0.7619;fill:#9EA0A2;}
	.st18{opacity:0.8095;fill:#989A9C;}
	.st19{opacity:0.8571;fill:#929496;}
	.st20{opacity:0.9048;fill:#8C8E91;}
	.st21{opacity:0.9524;fill:#86888B;}
	.st22{fill:url(#SVGID_1_);}
	.st23{fill:url(#SVGID_2_);}
	.st24{opacity:6.250000e-02;fill:#F7F7F7;}
	.st25{opacity:0.125;fill:#EFEFF0;}
	.st26{opacity:0.1875;fill:#E7E8E8;}
	.st27{opacity:0.25;fill:#DFE0E1;}
	.st28{opacity:0.3125;fill:#D7D8D9;}
	.st29{opacity:0.375;fill:#CFD0D1;}
	.st30{opacity:0.4375;fill:#C7C8CA;}
	.st31{opacity:0.5;fill:#C0C1C2;}
	.st32{opacity:0.5625;fill:#B8B9BA;}
	.st33{opacity:0.625;fill:#B0B1B3;}
	.st34{opacity:0.6875;fill:#A8A9AB;}
	.st35{opacity:0.75;fill:#A0A1A4;}
	.st36{opacity:0.8125;fill:#98999C;}
	.st37{opacity:0.875;fill:#909294;}
	.st38{opacity:0.9375;fill:#888A8D;}
	.st39{fill:url(#SVGID_3_);}
	.st40{fill:url(#SVGID_4_);}
	.st41{fill:none;}
	.st42{display:none;fill:#004B23;}
	.st43{font-family:'FuturaStd-Bold';}
	.st44{font-size:16.5832px;}
</style>
<path class="st0" d="M107,24.7c0,5.9-4.8,10.7-10.7,10.7H-39.2c-5.9,0-10.7-4.8-10.7-10.7v-8.7c0-5.9,4.8-10.7,10.7-10.7H96.2
	c5.9,0,10.7,4.8,10.7,10.7V24.7z"/>
<g>
	<g>
		<g>
			<path class="st1" d="M26.8,47.5c-11.4,0-20.6-9.3-20.6-20.6c0-11.4,9.3-20.6,20.6-20.6c11.4,0,20.6,9.3,20.6,20.6
				C47.5,38.2,38.2,47.5,26.8,47.5z"/>
			<path class="st2" d="M26.5,47.2c-11.4,0-20.6-9.3-20.6-20.6c0-11.4,9.3-20.6,20.6-20.6c11.4,0,20.6,9.3,20.6,20.6
				C47.2,37.9,37.9,47.2,26.5,47.2z"/>
			<path class="st3" d="M26.2,46.9c-11.4,0-20.6-9.2-20.6-20.6c0-11.4,9.3-20.6,20.6-20.6c11.4,0,20.6,9.3,20.6,20.6
				C46.9,37.6,37.6,46.9,26.2,46.9z"/>
			<path class="st4" d="M26,46.6C14.6,46.6,5.3,37.3,5.3,26C5.3,14.6,14.6,5.3,26,5.3c11.4,0,20.6,9.2,20.6,20.6
				C46.6,37.3,37.3,46.6,26,46.6z"/>
			<path class="st5" d="M25.7,46.3C14.3,46.3,5.1,37,5.1,25.7c0-11.4,9.2-20.6,20.6-20.6c11.4,0,20.6,9.2,20.6,20.6
				C46.3,37,37,46.3,25.7,46.3z"/>
			<path class="st6" d="M25.4,45.9C14,45.9,4.8,36.7,4.8,25.4C4.8,14,14,4.8,25.4,4.8c11.4,0,20.6,9.2,20.6,20.6
				C45.9,36.7,36.7,45.9,25.4,45.9z"/>
			<path class="st7" d="M25.1,45.6c-11.3,0-20.6-9.2-20.6-20.6c0-11.3,9.2-20.6,20.6-20.6c11.3,0,20.6,9.2,20.6,20.6
				C45.6,36.4,36.4,45.6,25.1,45.6z"/>
			<path class="st8" d="M24.8,45.3c-11.3,0-20.6-9.2-20.6-20.6c0-11.3,9.2-20.6,20.6-20.6c11.3,0,20.6,9.2,20.6,20.6
				C45.3,36.1,36.1,45.3,24.8,45.3z"/>
			<path class="st9" d="M24.5,45C13.1,45,3.9,35.8,3.9,24.5c0-11.3,9.2-20.5,20.5-20.5C35.8,3.9,45,13.1,45,24.5
				C45,35.8,35.8,45,24.5,45z"/>
			<path class="st10" d="M24.2,44.7c-11.3,0-20.5-9.2-20.5-20.5c0-11.3,9.2-20.5,20.5-20.5c11.3,0,20.5,9.2,20.5,20.5
				C44.7,35.5,35.5,44.7,24.2,44.7z"/>
			<path class="st11" d="M23.9,44.4c-11.3,0-20.5-9.2-20.5-20.5c0-11.3,9.2-20.5,20.5-20.5c11.3,0,20.5,9.2,20.5,20.5
				C44.4,35.2,35.2,44.4,23.9,44.4z"/>
			<path class="st12" d="M23.6,44.1c-11.3,0-20.5-9.2-20.5-20.5c0-11.3,9.2-20.5,20.5-20.5c11.3,0,20.5,9.2,20.5,20.5
				C44.1,34.9,34.9,44.1,23.6,44.1z"/>
			<path class="st13" d="M23.3,43.8C12,43.8,2.8,34.6,2.8,23.3C2.8,12,12,2.8,23.3,2.8c11.3,0,20.5,9.2,20.5,20.5
				C43.8,34.6,34.6,43.8,23.3,43.8z"/>
			<path class="st14" d="M23,43.5C11.7,43.5,2.5,34.3,2.5,23C2.5,11.7,11.7,2.5,23,2.5c11.3,0,20.5,9.2,20.5,20.5
				C43.5,34.3,34.3,43.5,23,43.5z"/>
			<path class="st15" d="M22.7,43.2C11.4,43.2,2.2,34,2.2,22.7c0-11.3,9.2-20.5,20.5-20.5c11.3,0,20.5,9.2,20.5,20.5
				C43.2,34,34,43.2,22.7,43.2z"/>
			<path class="st16" d="M22.4,42.9C11.1,42.9,2,33.7,2,22.4C2,11.1,11.1,2,22.4,2c11.3,0,20.5,9.2,20.5,20.5
				C42.9,33.7,33.7,42.9,22.4,42.9z"/>
			<path class="st17" d="M22.1,42.6c-11.3,0-20.4-9.2-20.4-20.4c0-11.3,9.2-20.4,20.4-20.4c11.3,0,20.4,9.2,20.4,20.4
				C42.6,33.4,33.4,42.6,22.1,42.6z"/>
			<path class="st18" d="M21.8,42.3c-11.3,0-20.4-9.2-20.4-20.4c0-11.3,9.2-20.4,20.4-20.4c11.3,0,20.4,9.2,20.4,20.4
				C42.3,33.1,33.1,42.3,21.8,42.3z"/>
			<path class="st19" d="M21.5,42C10.3,42,1.1,32.8,1.1,21.5c0-11.3,9.2-20.4,20.4-20.4C32.8,1.1,42,10.3,42,21.5
				C42,32.8,32.8,42,21.5,42z"/>
			<path class="st20" d="M21.2,41.6C10,41.6,0.8,32.5,0.8,21.2C0.8,10,10,0.8,21.2,0.8c11.3,0,20.4,9.2,20.4,20.4
				C41.6,32.5,32.5,41.6,21.2,41.6z"/>
			<path class="st21" d="M20.9,41.3c-11.2,0-20.4-9.2-20.4-20.4C0.5,9.7,9.7,0.5,20.9,0.5c11.2,0,20.4,9.2,20.4,20.4
				C41.3,32.2,32.2,41.3,20.9,41.3z"/>
			<path class="Graphic_x0020_Style" d="M20.6,41C9.4,41,0.3,31.9,0.3,20.6C0.3,9.4,9.4,0.3,20.6,0.3C31.9,0.3,41,9.4,41,20.6
				C41,31.9,31.9,41,20.6,41z"/>
		</g>
		<linearGradient id="SVGID_1_" gradientUnits="userSpaceOnUse" x1="0" y1="20.646" x2="41.292" y2="20.646">
			<stop  offset="0" style="stop-color:#FFFFFF"/>
			<stop  offset="1" style="stop-color:#D1D3D4"/>
		</linearGradient>
		<path class="st22" d="M20.6,41.3C9.3,41.3,0,32,0,20.6C0,9.3,9.3,0,20.6,0C32,0,41.3,9.3,41.3,20.6C41.3,32,32,41.3,20.6,41.3z"/>
		<linearGradient id="SVGID_2_" gradientUnits="userSpaceOnUse" x1="1.0323" y1="20.646" x2="40.2603" y2="20.646">
			<stop  offset="0" style="stop-color:#D1D3D4"/>
			<stop  offset="1" style="stop-color:#FFFFFF"/>
		</linearGradient>
		<path class="st23" d="M20.6,40.3C9.8,40.3,1,31.5,1,20.6C1,9.8,9.8,1,20.6,1c10.8,0,19.6,8.8,19.6,19.6
			C40.3,31.5,31.5,40.3,20.6,40.3z"/>
		<g>
			<path class="st1" d="M40.4,24.9c0,8.6-6.9,15.5-15.5,15.5c-8.6,0-15.5-6.9-15.5-15.5c0-8.6,6.9-15.5,15.5-15.5
				C33.4,9.4,40.4,16.3,40.4,24.9z"/>
			<path class="st24" d="M40.1,24.6c0,8.5-6.9,15.5-15.5,15.5c-8.5,0-15.5-6.9-15.5-15.5c0-8.5,6.9-15.5,15.5-15.5
				C33.2,9.1,40.1,16.1,40.1,24.6z"/>
			<path class="st25" d="M39.8,24.4c0,8.5-6.9,15.5-15.5,15.5c-8.5,0-15.5-6.9-15.5-15.5c0-8.5,6.9-15.5,15.5-15.5
				C32.9,8.9,39.8,15.8,39.8,24.4z"/>
			<path class="st26" d="M39.5,24.1c0,8.5-6.9,15.4-15.4,15.4c-8.5,0-15.4-6.9-15.4-15.4c0-8.5,6.9-15.4,15.4-15.4
				C32.6,8.7,39.5,15.6,39.5,24.1z"/>
			<path class="st27" d="M39.2,23.8c0,8.5-6.9,15.4-15.4,15.4c-8.5,0-15.4-6.9-15.4-15.4c0-8.5,6.9-15.4,15.4-15.4
				C32.3,8.4,39.2,15.3,39.2,23.8z"/>
			<path class="st28" d="M39,23.6C39,32.1,32.1,39,23.6,39c-8.5,0-15.4-6.9-15.4-15.4c0-8.5,6.9-15.4,15.4-15.4
				C32.1,8.2,39,15.1,39,23.6z"/>
			<path class="st29" d="M38.7,23.3c0,8.5-6.9,15.4-15.4,15.4c-8.5,0-15.4-6.9-15.4-15.4c0-8.5,6.9-15.4,15.4-15.4
				C31.8,7.9,38.7,14.8,38.7,23.3z"/>
			<path class="st30" d="M38.4,23c0,8.5-6.9,15.4-15.4,15.4c-8.5,0-15.4-6.9-15.4-15.4c0-8.5,6.9-15.4,15.4-15.4
				C31.5,7.7,38.4,14.5,38.4,23z"/>
			<path class="st31" d="M38.1,22.8c0,8.5-6.9,15.4-15.4,15.4c-8.5,0-15.4-6.9-15.4-15.4c0-8.5,6.9-15.4,15.4-15.4
				C31.2,7.4,38.1,14.3,38.1,22.8z"/>
			<path class="st32" d="M37.8,22.5c0,8.5-6.9,15.3-15.3,15.3C14,37.8,7.2,31,7.2,22.5C7.2,14,14,7.2,22.5,7.2
				C31,7.2,37.8,14,37.8,22.5z"/>
			<path class="st33" d="M37.6,22.2c0,8.5-6.9,15.3-15.3,15.3c-8.5,0-15.3-6.9-15.3-15.3c0-8.5,6.9-15.3,15.3-15.3
				C30.7,6.9,37.6,13.8,37.6,22.2z"/>
			<path class="st34" d="M37.3,22c0,8.5-6.9,15.3-15.3,15.3c-8.5,0-15.3-6.9-15.3-15.3c0-8.5,6.9-15.3,15.3-15.3
				C30.4,6.7,37.3,13.5,37.3,22z"/>
			<path class="st35" d="M37,21.7C37,30.2,30.1,37,21.7,37c-8.4,0-15.3-6.8-15.3-15.3c0-8.4,6.8-15.3,15.3-15.3
				C30.1,6.4,37,13.3,37,21.7z"/>
			<path class="st36" d="M36.7,21.4c0,8.4-6.8,15.3-15.3,15.3c-8.4,0-15.3-6.8-15.3-15.3C6.2,13,13,6.2,21.4,6.2
				C29.9,6.2,36.7,13,36.7,21.4z"/>
			<path class="st37" d="M36.4,21.2c0,8.4-6.8,15.3-15.3,15.3c-8.4,0-15.3-6.8-15.3-15.3c0-8.4,6.8-15.3,15.3-15.3
				C29.6,5.9,36.4,12.7,36.4,21.2z"/>
			<path class="st38" d="M36.2,20.9c0,8.4-6.8,15.2-15.2,15.2S5.7,29.3,5.7,20.9c0-8.4,6.8-15.2,15.2-15.2S36.2,12.5,36.2,20.9z"/>
			<path class="Graphic_x0020_Style" d="M35.9,20.6c0,8.4-6.8,15.2-15.2,15.2c-8.4,0-15.2-6.8-15.2-15.2c0-8.4,6.8-15.2,15.2-15.2
				C29.1,5.4,35.9,12.2,35.9,20.6z"/>
		</g>
		<linearGradient id="SVGID_3_" gradientUnits="userSpaceOnUse" x1="5.1612" y1="20.646" x2="36.1304" y2="20.646">
			<stop  offset="0" style="stop-color:#E24263"/>
			<stop  offset="1" style="stop-color:#DD1E47"/>
		</linearGradient>
		<path class="st39" d="M36.1,20.6c0,8.6-6.9,15.5-15.5,15.5c-8.6,0-15.5-6.9-15.5-15.5S12.1,5.2,20.6,5.2
			C29.2,5.2,36.1,12.1,36.1,20.6z"/>
		<linearGradient id="SVGID_4_" gradientUnits="userSpaceOnUse" x1="7.7422" y1="20.646" x2="33.5494" y2="20.646">
			<stop  offset="0" style="stop-color:#DD1E47"/>
			<stop  offset="1" style="stop-color:#E24263"/>
		</linearGradient>
		<path class="st40" d="M20.6,33.5c-7.1,0-12.9-5.8-12.9-12.9c0-7.1,5.8-12.9,12.9-12.9c7.1,0,12.9,5.8,12.9,12.9
			C33.5,27.8,27.8,33.5,20.6,33.5z"/>
	</g>
	<g>
		<path class="Graphic_x0020_Style_x0020_4" d="M18.1,28.8c-0.5,0-0.9-0.4-0.9-0.9V14.7c0-0.5,0.4-0.9,0.9-0.9c0.2,0,0.3,0,0.5,0.1
			l11.4,6.6c0.3,0.2,0.5,0.5,0.5,0.8c0,0.3-0.2,0.6-0.5,0.8l-11.4,6.6C18.4,28.7,18.2,28.8,18.1,28.8L18.1,28.8z"/>
		<path class="st41" d="M17.3,28c-0.5,0-0.9-0.4-0.9-0.9V13.9c0-0.5,0.4-0.9,0.9-0.9c0.2,0,0.3,0,0.5,0.1l11.4,6.6
			c0.3,0.2,0.5,0.5,0.5,0.8c0,0.3-0.2,0.6-0.5,0.8l-11.4,6.6C17.6,27.9,17.5,28,17.3,28L17.3,28z"/>
	</g>
</g>
<rect x="-19.6" y="12.1" class="st41" width="120" height="16.9"/>
<text transform="matrix(1 0 0 1 -18.6663 25.8437)" class="st42 st43 st44">Science Video</text>
</svg>
